<svg width="20" height="20" viewBox="0 0 20 20" fill="none" xmlns="http://www.w3.org/2000/svg">
<path d="M10 1.875C8.39303 1.875 6.82214 2.35152 5.486 3.24431C4.14985 4.1371 3.10844 5.40605 2.49348 6.8907C1.87852 8.37535 1.71762 10.009 2.03112 11.5851C2.34463 13.1612 3.11846 14.6089 4.25476 15.7452C5.39106 16.8815 6.8388 17.6554 8.4149 17.9689C9.99099 18.2824 11.6247 18.1215 13.1093 17.5065C14.594 16.8916 15.8629 15.8502 16.7557 14.514C17.6485 13.1779 18.125 11.607 18.125 10C18.1227 7.84581 17.266 5.78051 15.7427 4.25727C14.2195 2.73403 12.1542 1.87727 10 1.875ZM10 16.875C8.64026 16.875 7.31105 16.4718 6.18046 15.7164C5.04987 14.9609 4.16868 13.8872 3.64833 12.6309C3.12798 11.3747 2.99183 9.99237 3.2571 8.65875C3.52238 7.32513 4.17716 6.10013 5.13864 5.13864C6.10013 4.17716 7.32514 3.52237 8.65876 3.2571C9.99238 2.99183 11.3747 3.12798 12.631 3.64833C13.8872 4.16868 14.9609 5.04987 15.7164 6.18045C16.4718 7.31104 16.875 8.64025 16.875 10C16.8729 11.8227 16.1479 13.5702 14.8591 14.8591C13.5702 16.1479 11.8227 16.8729 10 16.875ZM13.5672 9.55781C13.6253 9.61586 13.6714 9.68479 13.7029 9.76066C13.7343 9.83654 13.7505 9.91787 13.7505 10C13.7505 10.0821 13.7343 10.1635 13.7029 10.2393C13.6714 10.3152 13.6253 10.3841 13.5672 10.4422L11.0672 12.9422C10.9499 13.0595 10.7909 13.1253 10.625 13.1253C10.4592 13.1253 10.3001 13.0595 10.1828 12.9422C10.0655 12.8249 9.99966 12.6659 9.99966 12.5C9.99966 12.3341 10.0655 12.1751 10.1828 12.0578L11.6164 10.625H6.875C6.70924 10.625 6.55027 10.5592 6.43306 10.4419C6.31585 10.3247 6.25 10.1658 6.25 10C6.25 9.83424 6.31585 9.67527 6.43306 9.55806C6.55027 9.44085 6.70924 9.375 6.875 9.375H11.6164L10.1828 7.94219C10.0655 7.82491 9.99966 7.66585 9.99966 7.5C9.99966 7.33415 10.0655 7.17509 10.1828 7.05781C10.3001 6.94054 10.4592 6.87465 10.625 6.87465C10.7909 6.87465 10.9499 6.94054 11.0672 7.05781L13.5672 9.55781Z" fill="white"/>
</svg>
