<svg width="20" height="21" viewBox="0 0 20 21" fill="none" xmlns="http://www.w3.org/2000/svg">
<g id="Book">
<path id="Vector" d="M16.875 3V15.5C16.875 15.6658 16.8092 15.8247 16.6919 15.9419C16.5747 16.0592 16.4158 16.125 16.25 16.125H5.625C5.29348 16.125 4.97554 16.2567 4.74112 16.4911C4.5067 16.7255 4.375 17.0435 4.375 17.375H15C15.1658 17.375 15.3247 17.4408 15.4419 17.5581C15.5592 17.6753 15.625 17.8342 15.625 18C15.625 18.1658 15.5592 18.3247 15.4419 18.4419C15.3247 18.5592 15.1658 18.625 15 18.625H3.75C3.58424 18.625 3.42527 18.5592 3.30806 18.4419C3.19085 18.3247 3.125 18.1658 3.125 18V4.875C3.125 4.21196 3.38839 3.57607 3.85723 3.10723C4.32607 2.63839 4.96196 2.375 5.625 2.375H16.25C16.4158 2.375 16.5747 2.44085 16.6919 2.55806C16.8092 2.67527 16.875 2.83424 16.875 3Z" fill="#01B5D6"/>
</g>
</svg>
