<svg width="24" height="16" viewBox="0 0 24 16" fill="none" xmlns="http://www.w3.org/2000/svg">
<path d="M10.9921 10.8073C11.9973 10.1381 12.7605 9.16317 13.1687 8.02671C13.577 6.89024 13.6087 5.65256 13.2591 4.49669C12.9095 3.34082 12.1973 2.32813 11.2276 1.60837C10.258 0.888613 9.0825 0.5 7.87492 0.5C6.66735 0.5 5.49184 0.888613 4.52221 1.60837C3.55258 2.32813 2.84032 3.34082 2.49076 4.49669C2.1412 5.65256 2.17288 6.89024 2.58114 8.02671C2.9894 9.16317 3.75255 10.1381 4.75774 10.8073C2.93945 11.4774 1.38659 12.7176 0.330862 14.3426C0.275377 14.4251 0.236837 14.5177 0.217482 14.6152C0.198127 14.7127 0.198344 14.8131 0.218119 14.9105C0.237895 15.0079 0.276835 15.1004 0.332676 15.1826C0.388516 15.2649 0.460144 15.3352 0.543396 15.3895C0.626647 15.4438 0.719861 15.481 0.81762 15.4989C0.915378 15.5169 1.01573 15.5152 1.11285 15.4941C1.20996 15.4729 1.3019 15.4326 1.38332 15.3756C1.46473 15.3186 1.53401 15.246 1.58711 15.162C2.2681 14.1146 3.19995 13.2539 4.29802 12.6581C5.3961 12.0623 6.62562 11.7502 7.87492 11.7502C9.12423 11.7502 10.3538 12.0623 11.4518 12.6581C12.5499 13.2539 13.4817 14.1146 14.1627 15.162C14.2727 15.3255 14.4427 15.4391 14.6358 15.4783C14.8289 15.5175 15.0297 15.4791 15.1947 15.3715C15.3598 15.2638 15.4758 15.0955 15.5178 14.903C15.5598 14.7105 15.5243 14.5092 15.419 14.3426C14.3633 12.7176 12.8104 11.4774 10.9921 10.8073ZM3.74992 6.12728C3.74992 5.31143 3.99185 4.51391 4.44511 3.83556C4.89837 3.1572 5.54261 2.62849 6.29636 2.31628C7.0501 2.00407 7.8795 1.92238 8.67967 2.08154C9.47984 2.24071 10.2148 2.63357 10.7917 3.21047C11.3686 3.78736 11.7615 4.52236 11.9207 5.32253C12.0798 6.12271 11.9981 6.95211 11.6859 7.70585C11.3737 8.4596 10.845 9.10383 10.1667 9.55709C9.4883 10.0104 8.69077 10.2523 7.87492 10.2523C6.78129 10.251 5.7328 9.81605 4.95948 9.04273C4.18616 8.26941 3.75117 7.22092 3.74992 6.12728ZM23.4506 15.3804C23.284 15.489 23.081 15.5271 22.8864 15.4861C22.6918 15.4451 22.5214 15.3285 22.4127 15.162C21.7326 14.114 20.8008 13.2529 19.7025 12.6573C18.6042 12.0617 17.3743 11.7506 16.1249 11.7523C15.926 11.7523 15.7352 11.6733 15.5946 11.5326C15.4539 11.392 15.3749 11.2012 15.3749 11.0023C15.3749 10.8034 15.4539 10.6126 15.5946 10.472C15.7352 10.3313 15.926 10.2523 16.1249 10.2523C16.7324 10.2517 17.3322 10.117 17.8816 9.8577C18.431 9.59843 18.9163 9.22102 19.3029 8.75245C19.6895 8.28387 19.9678 7.73569 20.118 7.14707C20.2682 6.55846 20.2865 5.94394 20.1716 5.34742C20.0568 4.75091 19.8116 4.18712 19.4536 3.69634C19.0956 3.20556 18.6337 2.79991 18.1007 2.50838C17.5678 2.21684 16.977 2.04661 16.3707 2.00984C15.7643 1.97308 15.1573 2.0707 14.5931 2.29572C14.501 2.33549 14.402 2.35642 14.3018 2.35727C14.2016 2.35811 14.1022 2.33886 14.0095 2.30065C13.9169 2.26244 13.8328 2.20605 13.7623 2.1348C13.6918 2.06355 13.6363 1.9789 13.5991 1.88584C13.5619 1.79278 13.5437 1.6932 13.5456 1.59299C13.5475 1.49278 13.5695 1.39397 13.6102 1.30239C13.651 1.21082 13.7097 1.12834 13.7828 1.05984C13.856 0.991329 13.9421 0.938181 14.0362 0.903532C15.3275 0.388518 16.7639 0.369984 18.0681 0.851507C19.3723 1.33303 20.452 2.28049 21.0989 3.51111C21.7458 4.74173 21.914 6.16831 21.5711 7.51564C21.2283 8.86298 20.3986 10.0356 19.2421 10.8073C21.0604 11.4774 22.6133 12.7176 23.669 14.3426C23.7776 14.5092 23.8156 14.7121 23.7747 14.9067C23.7337 15.1014 23.6171 15.2717 23.4506 15.3804Z" fill="white" fill-opacity="0.9"/>
</svg>
