<svg width="20" height="21" viewBox="0 0 20 21" fill="none" xmlns="http://www.w3.org/2000/svg">
<g id="FilmReel">
<path id="Vector" d="M17.5001 17.375H14.3251C15.9808 16.3319 17.2042 14.7259 17.7702 12.8526C18.3361 10.9793 18.2066 8.96468 17.4055 7.17926C16.6044 5.39384 15.1855 3.95774 13.4098 3.13515C11.6342 2.31255 9.62124 2.15878 7.74126 2.70213C5.86128 3.24548 4.24073 4.44939 3.1777 6.09241C2.11467 7.73543 1.68066 9.70704 1.95552 11.6446C2.23039 13.5821 3.19562 15.3552 4.67368 16.6377C6.15173 17.9203 8.04319 18.626 10.0001 18.625H17.5001C17.6659 18.625 17.8248 18.5592 17.9421 18.4419C18.0593 18.3247 18.1251 18.1658 18.1251 18C18.1251 17.8342 18.0593 17.6753 17.9421 17.5581C17.8248 17.4409 17.6659 17.375 17.5001 17.375ZM6.25011 12.0625C5.94108 12.0625 5.63899 11.9709 5.38204 11.7992C5.12508 11.6275 4.92481 11.3835 4.80655 11.0979C4.68829 10.8124 4.65735 10.4983 4.71764 10.1952C4.77793 9.89208 4.92674 9.61367 5.14526 9.39515C5.36378 9.17663 5.64219 9.02782 5.94528 8.96753C6.24838 8.90724 6.56255 8.93818 6.84806 9.05644C7.13357 9.1747 7.3776 9.37497 7.54929 9.63193C7.72097 9.88888 7.81261 10.191 7.81261 10.5C7.81261 10.9144 7.64799 11.3118 7.35497 11.6049C7.06194 11.8979 6.66451 12.0625 6.25011 12.0625ZM10.0001 15.8125C9.69108 15.8125 9.38899 15.7209 9.13204 15.5492C8.87508 15.3775 8.67481 15.1335 8.55655 14.8479C8.43829 14.5624 8.40735 14.2483 8.46764 13.9452C8.52793 13.6421 8.67674 13.3637 8.89526 13.1452C9.11378 12.9266 9.39219 12.7778 9.69528 12.7175C9.99838 12.6572 10.3125 12.6882 10.5981 12.8064C10.8836 12.9247 11.1276 13.125 11.2993 13.3819C11.471 13.6389 11.5626 13.941 11.5626 14.25C11.5626 14.6644 11.398 15.0618 11.105 15.3549C10.8119 15.6479 10.4145 15.8125 10.0001 15.8125ZM10.0001 8.3125C9.69108 8.3125 9.38899 8.22087 9.13204 8.04918C8.87508 7.87749 8.67481 7.63346 8.55655 7.34795C8.43829 7.06244 8.40735 6.74827 8.46764 6.44518C8.52793 6.14208 8.67674 5.86367 8.89526 5.64515C9.11378 5.42663 9.39219 5.27782 9.69528 5.21753C9.99838 5.15724 10.3125 5.18818 10.5981 5.30644C10.8836 5.4247 11.1276 5.62497 11.2993 5.88193C11.471 6.13888 11.5626 6.44097 11.5626 6.75C11.5626 7.16441 11.398 7.56183 11.105 7.85486C10.8119 8.14788 10.4145 8.3125 10.0001 8.3125ZM12.1876 10.5C12.1876 10.191 12.2793 9.88888 12.4509 9.63193C12.6226 9.37497 12.8667 9.1747 13.1522 9.05644C13.4377 8.93818 13.7518 8.90724 14.0549 8.96753C14.358 9.02782 14.6364 9.17663 14.855 9.39515C15.0735 9.61367 15.2223 9.89208 15.2826 10.1952C15.3429 10.4983 15.3119 10.8124 15.1937 11.0979C15.0754 11.3835 14.8751 11.6275 14.6182 11.7992C14.3612 11.9709 14.0591 12.0625 13.7501 12.0625C13.3357 12.0625 12.9383 11.8979 12.6453 11.6049C12.3522 11.3118 12.1876 10.9144 12.1876 10.5Z" fill="#FF3B5D"/>
</g>
</svg>
