<svg width="20" height="21" viewBox="0 0 20 21" fill="none" xmlns="http://www.w3.org/2000/svg">
<g id="Newspaper">
<path id="Vector" d="M16.875 4.25H4.375C4.04348 4.25 3.72554 4.3817 3.49112 4.61612C3.2567 4.85054 3.125 5.16848 3.125 5.5V14.875C3.125 15.0408 3.05915 15.1997 2.94194 15.3169C2.82473 15.4342 2.66576 15.5 2.5 15.5C2.33424 15.5 2.17527 15.4342 2.05806 15.3169C1.94085 15.1997 1.875 15.0408 1.875 14.875V7.375C1.875 7.20924 1.80915 7.05027 1.69194 6.93306C1.57473 6.81585 1.41576 6.75 1.25 6.75C1.08424 6.75 0.925268 6.81585 0.808058 6.93306C0.690848 7.05027 0.625 7.20924 0.625 7.375V14.8836C0.627272 15.3794 0.825819 15.8541 1.1772 16.2039C1.52859 16.5536 2.0042 16.75 2.5 16.75H16.25C16.7473 16.75 17.2242 16.5525 17.5758 16.2008C17.9275 15.8492 18.125 15.3723 18.125 14.875V5.5C18.125 5.16848 17.9933 4.85054 17.7589 4.61612C17.5245 4.3817 17.2065 4.25 16.875 4.25ZM13.75 12.375H7.5C7.33424 12.375 7.17527 12.3092 7.05806 12.1919C6.94085 12.0747 6.875 11.9158 6.875 11.75C6.875 11.5842 6.94085 11.4253 7.05806 11.3081C7.17527 11.1908 7.33424 11.125 7.5 11.125H13.75C13.9158 11.125 14.0747 11.1908 14.1919 11.3081C14.3092 11.4253 14.375 11.5842 14.375 11.75C14.375 11.9158 14.3092 12.0747 14.1919 12.1919C14.0747 12.3092 13.9158 12.375 13.75 12.375ZM13.75 9.875H7.5C7.33424 9.875 7.17527 9.80915 7.05806 9.69194C6.94085 9.57473 6.875 9.41576 6.875 9.25C6.875 9.08424 6.94085 8.92527 7.05806 8.80806C7.17527 8.69085 7.33424 8.625 7.5 8.625H13.75C13.9158 8.625 14.0747 8.69085 14.1919 8.80806C14.3092 8.92527 14.375 9.08424 14.375 9.25C14.375 9.41576 14.3092 9.57473 14.1919 9.69194C14.0747 9.80915 13.9158 9.875 13.75 9.875Z" fill="#0E946E"/>
</g>
</svg>
