<svg width="24" height="24" viewBox="0 0 24 24" fill="none" xmlns="http://www.w3.org/2000/svg">
<g clip-path="url(#clip0_489_126)">
<path d="M11.9729 9.96094C10.7904 9.96094 9.82812 10.9229 9.82812 12.1054C9.82812 13.2878 10.7904 14.2498 11.9729 14.2498C13.1553 14.2498 14.1173 13.2878 14.1173 12.1054C14.1173 10.9229 13.1553 9.96094 11.9729 9.96094ZM11.9729 13.2967C11.3159 13.2967 10.7812 12.7623 10.7812 12.1054C10.7812 11.4484 11.3159 10.914 11.9729 10.914C12.6295 10.914 13.1642 11.4484 13.1642 12.1054C13.1642 12.7623 12.6295 13.2967 11.9729 13.2967Z" fill="white" fill-opacity="0.9"/>
<path d="M16.3989 9.64062C15.5974 9.64062 14.9452 10.2928 14.9452 11.0947V12.0542C14.9452 13.6801 13.6226 15.0027 11.997 15.0027C10.371 15.0027 9.04814 13.6801 9.04814 12.0542V11.0947C9.04814 10.2929 8.39592 9.64062 7.59407 9.64062C6.79253 9.64062 6.14062 10.2928 6.14062 11.0947V12.0364C6.14062 13.8415 6.97997 15.5504 8.39846 16.6569V19.5161C8.39846 19.7792 8.61164 19.9927 8.875 19.9927H15.0633C15.3264 19.9927 15.5399 19.7792 15.5399 19.5161V16.6845C16.9927 15.5656 17.8527 13.825 17.8527 11.9782V11.0947C17.8527 10.2929 17.2008 9.64062 16.3989 9.64062ZM14.5868 16.4437V19.0396H9.35154V16.418C9.35154 16.2642 9.27688 16.1197 9.15171 16.0301C7.86284 15.1104 7.0937 13.6175 7.0937 12.0364V11.0947C7.0937 10.8183 7.31799 10.5937 7.59407 10.5937C7.87046 10.5937 8.09507 10.8183 8.09507 11.0947V12.0542C8.09507 14.2056 9.84523 15.9557 11.997 15.9557C14.1481 15.9557 15.8982 14.2056 15.8982 12.0542V11.0947C15.8982 10.8183 16.1228 10.5937 16.3992 10.5937C16.6753 10.5937 16.8996 10.8183 16.8996 11.0947V11.9782C16.8996 13.5994 16.1104 15.1231 14.7888 16.0542C14.6621 16.1435 14.5868 16.2887 14.5868 16.4437Z" fill="white" fill-opacity="0.9"/>
<path d="M8.59571 9.26961C8.78182 9.45571 9.08353 9.45571 9.26963 9.26961C9.45574 9.08354 9.45574 8.78179 9.26963 8.59569L7.47756 6.80362C7.29149 6.61754 6.98974 6.61754 6.80364 6.80362C6.61754 6.98969 6.61754 7.29143 6.80364 7.47754L8.59571 9.26961Z" fill="white" fill-opacity="0.9"/>
<path d="M15.4776 9.26961L17.2696 7.47754C17.4557 7.29146 17.4557 6.98972 17.2696 6.80362C17.0836 6.61754 16.7818 6.61754 16.5957 6.80362L14.8036 8.59569C14.6175 8.78176 14.6175 9.0835 14.8036 9.26961C14.9897 9.45571 15.2915 9.45568 15.4776 9.26961Z" fill="white" fill-opacity="0.9"/>
<path d="M11.3281 8.83854V7.33854M11.3281 7.33854V4.67188L14.3281 6.00521L11.3281 7.33854Z" stroke="white" stroke-opacity="0.9" stroke-width="0.8" stroke-linecap="round" stroke-linejoin="round"/>
<path d="M21.7697 5.03201C20.5244 3.28593 18.8338 1.90551 16.874 1.03441C14.9142 0.163313 12.7567 -0.166636 10.6262 0.0789037C8.49557 0.324443 6.46972 1.1365 4.75943 2.43056C3.04915 3.72462 1.71692 5.4534 0.901402 7.43698C0.0858821 9.42057 -0.183131 11.5865 0.122359 13.7093C0.427849 15.8321 1.29668 17.8343 2.63843 19.5074C3.98018 21.1805 5.74581 22.4635 7.75159 23.2228C9.75737 23.9821 11.93 24.1899 14.0434 23.8247L13.813 22.4916C11.9379 22.8157 10.0102 22.6312 8.23056 21.9575C6.45091 21.2838 4.88433 20.1455 3.69385 18.661C2.50337 17.1765 1.73249 15.4001 1.46144 13.5166C1.19039 11.6331 1.42908 9.71137 2.15266 7.95142C2.87624 6.19146 4.05826 4.65759 5.57573 3.50942C7.0932 2.36125 8.89066 1.64074 10.781 1.42289C12.6714 1.20503 14.5856 1.49778 16.3245 2.27067C18.0634 3.04357 19.5633 4.26835 20.6683 5.81758L21.7697 5.03201Z" fill="white" fill-opacity="0.9"/>
<mask id="path-8-inside-1_489_126" fill="white">
<path d="M13.96 23.9312C15.9972 23.6075 17.9166 22.7641 19.533 21.4824C21.1493 20.2007 22.4079 18.524 23.1873 16.6141C23.9667 14.7042 24.2407 12.6256 23.9827 10.579C23.7247 8.53236 22.9434 6.58681 21.7144 4.93011L20.5682 5.78041C21.6511 7.24008 22.3394 8.95426 22.5668 10.7575C22.7941 12.5607 22.5527 14.3921 21.866 16.0748C21.1792 17.7576 20.0703 19.2349 18.6462 20.3642C17.2221 21.4935 15.531 22.2366 13.736 22.5218L13.96 23.9312Z"/>
</mask>
<path d="M13.96 23.9312C15.9972 23.6075 17.9166 22.7641 19.533 21.4824C21.1493 20.2007 22.4079 18.524 23.1873 16.6141C23.9667 14.7042 24.2407 12.6256 23.9827 10.579C23.7247 8.53236 22.9434 6.58681 21.7144 4.93011L20.5682 5.78041C21.6511 7.24008 22.3394 8.95426 22.5668 10.7575C22.7941 12.5607 22.5527 14.3921 21.866 16.0748C21.1792 17.7576 20.0703 19.2349 18.6462 20.3642C17.2221 21.4935 15.531 22.2366 13.736 22.5218L13.96 23.9312Z" stroke="white" stroke-opacity="0.9" stroke-width="1.6" stroke-dasharray="3.2 3.2" mask="url(#path-8-inside-1_489_126)"/>
</g>
<defs>
<clipPath id="clip0_489_126">
<rect width="24" height="24" rx="12" fill="white"/>
</clipPath>
</defs>
</svg>
